HIERARCHY
ROOT Hips
{
	OFFSET	0	0	0
	CHANNELS 6  Xposition Yposition Zposition Xrotation Yrotation Zrotation
	JOINT Spine
	{
		OFFSET	0	6.43035	1.29592
		CHANNELS 3  Xrotation Yrotation Zrotation
		JOINT Spine1
		{
			OFFSET	0	11.0515	-1.97348
			CHANNELS 3  Xrotation Yrotation Zrotation
			JOINT Spine2
			{
				OFFSET	0	8.37743	0.897934
				CHANNELS 3  Xrotation Yrotation Zrotation
				JOINT Spine3
				{
					OFFSET	0	10.0253	2.97996
					CHANNELS 3  Xrotation Yrotation Zrotation
					JOINT Spine4
					{
						OFFSET	0	14.8406	-1.51958
						CHANNELS 3  Xrotation Yrotation Zrotation
						JOINT Neck
						{
							OFFSET	0	7.0848	-4.96331
							CHANNELS 3  Xrotation Yrotation Zrotation
							JOINT Head
							{
								OFFSET	0	8.50571	-2.54579
								CHANNELS 3  Xrotation Yrotation Zrotation
								End Site
								{
									OFFSET	0	17.7416	-0.858465
								}
							}
						}
					}
					JOINT LeftShoulder
					{
						OFFSET	-4.26272	18.0376	-8.50571
						CHANNELS 3  Xrotation Yrotation Zrotation
						JOINT LeftArm
						{
							OFFSET	-9.26857	-2.54579	3.26613
							CHANNELS 3  Xrotation Yrotation Zrotation
							JOINT LeftForeArm
							{
								OFFSET	-28.2392	-1.28889	2.01568
								CHANNELS 3  Xrotation Yrotation Zrotation
								JOINT LeftHand
								{
									OFFSET	-22.9751	-1.58771	1.63994
									CHANNELS 3  Xrotation Yrotation Zrotation
									End Site
									{
										OFFSET	-8.38477	-0.579434	0.598457
									}
								}
							}
						}
					}
					JOINT RightShoulder
					{
						OFFSET	4.26272	18.0376	-8.50571
						CHANNELS 3  Xrotation Yrotation Zrotation
						JOINT RightArm
						{
							OFFSET	9.26857	-2.54579	3.26613
							CHANNELS 3  Xrotation Yrotation Zrotation
							JOINT RightForeArm
							{
								OFFSET	28.2392	-1.28889	2.01568
								CHANNELS 3  Xrotation Yrotation Zrotation
								JOINT RightHand
								{
									OFFSET	22.9751	-1.58771	1.63994
									CHANNELS 3  Xrotation Yrotation Zrotation
									End Site
									{
										OFFSET	8.38477	-0.579434	0.598457
									}
								}
							}
						}
					}
				}
			}
		}
	}
	JOINT LeftUpLeg
	{
		OFFSET	-8.79432	-3.21518	-0.64796
		CHANNELS 3  Xrotation Yrotation Zrotation
		JOINT LeftLeg
		{
			OFFSET	-1.93242	-37.8649	-0.591911
			CHANNELS 3  Xrotation Yrotation Zrotation
			JOINT LeftFoot
			{
				OFFSET	-1.8889	-34.8184	2.99439
				CHANNELS 3  Xrotation Yrotation Zrotation
				JOINT LeftToeBase
				{
					OFFSET	0	-4.3392	-11.5249
					CHANNELS 3  Xrotation Yrotation Zrotation
					End Site
					{
						OFFSET	0	-1.73568	-6.94272
					}
				}
			}
		}
	}
	JOINT RightUpLeg
	{
		OFFSET	8.79432	-3.21518	-0.64796
		CHANNELS 3  Xrotation Yrotation Zrotation
		JOINT RightLeg
		{
			OFFSET	1.93242	-37.8649	-0.591911
			CHANNELS 3  Xrotation Yrotation Zrotation
			JOINT RightFoot
			{
				OFFSET	1.8889	-34.8184	2.99439
				CHANNELS 3  Xrotation Yrotation Zrotation
				JOINT RightToeBase
				{
					OFFSET	0	-4.3392	-11.5249
					CHANNELS 3  Xrotation Yrotation Zrotation
					End Site
					{
						OFFSET	0	-1.73568	-6.94272
					}
				}
			}
		}
	}
}
MOTION
Frames: 6
Frame Time: 0.020408
 189.711 73.7377 -290.671 166.717 -18.108 -147.788 0.00459381 0.0324028 -8.06918 173.355 179.936 166.551 172.923 179.809 166.551 174.179 179.968 171.931 1.01023 -0.0474573 -2.68931 7.39292 7.19429 16.5902 2.80612 -10.1685 4.82703 179.087 -156.841 178.023 128.537 -124.886 -153.524 145.73 -143.92 156.232 -0 76.0435 -17.9222 178.199 160.291 -176.12 112.161 172.291 159.565 175.915 112.65 -174.632 -0 29.9475 -2.90289 69.0706 -80.6642 91.5713 106.73 165.779 179.54 34.6604 0.0633217 -2.90358 0.199967 0 0 16.1448 14.3339 -29.0527 158.561 176.117 179.658 177.019 -179.758 169.917 0.638962 0 0
 188.681 73.3719 -290.445 166.321 -17.4843 -147.838 0.00120937 0.00876657 -7.85453 173.03 179.983 166.909 172.55 179.948 166.909 173.888 179.991 172.145 1.09049 -0.0498625 -2.6177 8.1253 7.40045 15.3529 2.95382 -8.59686 4.55758 179.623 -156.27 179.184 127.458 -125.689 -154.539 145.281 -144.279 156.318 -0 76.0698 -18.4648 177.787 159.918 -175.227 110.422 169.867 159.072 174.945 111.644 -173.53 -0 30.1913 -3.8152 68.0952 -80.9991 91.5902 106.565 166.596 179.388 36.0993 0.0134719 -3.06436 0.203872 0 0 17.0246 14.1892 -29.2295 156.309 176.264 179.671 178.293 -179.891 170.053 0.695351 0 0
 188.264 73.6341 -289.968 165.792 -19.0718 -148.401 0.00139025 0.0108731 -7.28641 172.844 179.979 167.856 172.392 179.936 167.856 173.845 179.989 172.714 0.838405 -0.0355606 -2.42854 7.59329 7.65149 15.343 2.78435 -7.89787 4.54571 179.21 -156.313 178.288 126.951 -126.577 -156.968 144.328 -143.289 155.139 -0 76.433 -18.9398 176.759 158.484 -172.982 109.177 168.261 159.646 174.696 111.1 -173.222 -0 30.4508 -4.18912 67.3931 -81.4441 92.5133 106.263 167.251 179.237 37.3555 0.0532904 -3.28147 0.208222 0 0 17.0027 13.9694 -29.295 153.571 176.29 179.632 178.837 179.999 170.128 0.746954 0 0
 187.529 72.8 -289.318 164.076 -18.1859 -149.442 0.000462261 0.00381062 -6.91667 172.698 179.992 168.472 172.216 179.977 168.472 173.677 179.996 173.083 0.959449 -0.0386269 -2.30523 8.22091 7.45585 14.4991 2.92728 -7.40367 4.33973 178.983 -156.263 177.796 126.658 -127.89 -158.995 143.755 -143.047 154.319 -0 76.5582 -19.326 175.963 157.383 -171.232 107.404 166.752 160.172 174.183 111.618 -172.874 -0 30.3856 -4.84818 64.3849 -82.5523 91.4693 105.799 167.672 179.543 38.8875 0.146213 -3.50987 0.213456 0 0 16.9641 13.8467 -29.4142 150.479 176.359 179.625 1.87449 -0.00080698 -9.77475 0.808317 0 0
 186.897 72.4112 -288.837 162.838 -17.1357 -150.053 7.97472e-05 0.00070414 -6.46148 172.561 179.999 169.231 172.124 179.996 169.231 173.728 179.999 173.539 0.582079 -0.0218911 -2.15372 7.42909 6.73176 13.9526 2.64107 -7.35978 4.09456 178.763 -156.829 177.32 126.236 -129.028 -159.53 143.15 -142.545 153.532 -0 76.7063 -19.668 175.63 156.64 -170.494 106.239 164.83 160.383 173.823 111.31 -172.579 -0 30.4875 -5.31443 63.1614 -83.6315 92.2673 105.238 168.193 179.473 40.0841 0.116344 -3.71556 0.219514 0 0 16.6415 14.0856 -28.8251 147.488 176.34 179.835 2.47039 -0.0379319 -9.70103 0.862876 0 0
 185.317 72.6984 -288.111 160.856 -16.5649 -152.304 179.998 -179.985 173.263 172.238 -179.971 168.771 171.955 -179.912 168.771 174.014 -179.985 173.263 179.314 179.973 177.754 4.35251 4.86331 13.487 1.64174 -8.19295 3.66594 178.231 -157.285 176.169 124.078 -130.301 -160.503 142.356 -141.366 152.447 -0 76.7595 -19.859 176.746 154.085 -172.921 109.17 161.872 161.401 174.59 110.03 -173.269 -0 30.735 -4.70375 59.2175 -83.4124 90.6602 106.734 168.534 179.675 39.1404 0.0806463 -3.92938 0.226352 0 0 16.5463 13.8478 -27.9824 142.661 176.059 179.59 0.836765 0.0031607 -9.8219 0.911583 0 0
